<svg viewBox="0 0 100 55" xmlns="http://www.w3.org/2000/svg" fill-rule="evenodd" clip-rule="evenodd" stroke-linejoin="round" stroke-miterlimit="2" width="90"><path fill="currentColor" d="M45 50.45c.382-.453.553-.403 1.204-1.37 1.74-2.585 1.96-5.208 2.114-5.515.117.148.367.722.465.941.547 1.226.606 2.327.528 3.711-.07 1.24-.465 3.514-1.219 4.428-.191-.073-.768-.75-1.037-.966-.412-.331-.584-.537-1.141-.82L45 50.45zM24.993 24.997c.072-.1.106-.238.183-.361.342-.547.664-.477 1.13-.48.713-.003 1.417-.049 2.13-.046.512.001.458-.053.811-.271.525-.325 1.357-1.024 1.647-1.544-.213.004-.632.145-.864.196-.738.164-2.329.097-3.149.097-.494 0-.51-.034-.919.162-.79.38-1.004 1.381-.97 2.247m24.664 3.822c.05.057.043.107.044.225l.01.737c.015.319.014.637.017.956l.091 5.85c.022 1.304 0 2.616.014 3.922.005.417.094 3.591.211 3.744.054-.074.153-1.644.16-1.883.068-2.12.036-4.039.07-6.121.045-2.719.096-5.417.122-8.127.076-.151.283-.383.403-.552.228-.324.543-.883.72-1.242.056-.113.098-.206.153-.32l.12-.255c.03-.045.022-.033.052-.062.063.138.206.335.294.483l.793 1.438c.354.654.708 1.301 1.07 1.941.18.321.35.655.532.99.186.344.369.617.553.934.387.665.396.576.303 1.053-.079.41-.16.824-.263 1.23-.236 1.2-.88 3.102-1.333 4.242-.25.628-1.475 3.412-1.826 3.725-.27-1.355-.378-4.008-.387-5.512l.012-1.856c-.02-.08-.003-.036-.038-.084.037.261-.073 1.068-.096 1.395a37.357 37.357 0 0 0-.072 4.305 29.355 29.355 0 0 0 .167 2.073c.05.411.013.426-.405.985-.06.078-.105.119-.155.217-.993 1.945-1.046 4.45-.594 6.578.362 1.701.595 2.942 1.567 4.328l-.164-.354.233.156c.197-.621.453-.94.816-1.276a6.22 6.22 0 0 1 1.222-.873c.47-.26 1.658-.813 2.225-.923.522-.102.673-.062.74-.3-.154-.073-.434-.143-.599-.206-1.268-.485-2.19-1.672-2.823-2.859-.651-1.22-1.127-2.879-1.398-4.284-.063-.323-.13-.357.018-.636.38-.716.723-1.42 1.115-2.132.405-.736 1.026-1.935 1.455-2.603.104-.16.23-.312.334-.477.445-.703.795-1.344 1.11-2.138l.332-.884c.04-.117.053-.21.132-.297.08.236 1.215 1.875 1.434 2.19.4.576 2.13 2.939 2.788 3.501.17.146.267.263.433.446.356.395 1.66 1.374 2.214 1.33-.122-.106-.4-.866-.473-1.144a8.28 8.28 0 0 1-.246-1.405c-.196-2.309.497-4.697 1.479-6.732l.542-1.092.755 2.574c.269.833.611 1.585.809 2.471.89 3.99-.612 8.301-2.748 11.532-.482.727-.813 1.236-1.35 1.93l-.721.92c.102-.042.197-.157.343-.283l1.419-1.49c.049-.06.09-.1.14-.162.049-.062.059-.08.119-.154 1.585-1.94 2.569-4.062 3.306-6.533.412-1.38.555-2.998.818-3.814.654-2.026 1.593-3.243 3.016-4.526.238-.215.706-.607.969-.754.208-.117.607-.246.857-.327.372-.122.51-.24.896-.121.429.13.526.151 1.012.154.603.003 1.394-.142 1.829-.522.167-.147 1.164-.58 1.77-1.41.02-.028.03-.045.057-.076l.015-.015.015-.014.031-.025c.05-.139.096-.136.148-.278.086-.232.17-.71.196-.954a5.998 5.998 0 0 0-.031-1.46c-.048-.333-.64-2.15-.784-2.33l-4.57.01c.248.11.653.21.934.312.957.348 1.482.725 1.932 1.754.638 1.459-.115 2.55-1.537 2.864-.722.16-1.504.046-2.147-.195-.502-.188-.974-.765-1.19-1.28-.235-.556-.15-1.64-.15-2.316 0-.38-.025-2.202.013-2.42l.138.105-.011.666c.087-.12.126-.285.224-.422.397-.557.81-.41 1.495-.425.87-.02 1.704.001 2.57.006 1.057.006 4.13.056 5.005-.008.488-.006 4.872-.085 5.248-.023-.126-.27-.692-.668-.789-.84-.182-.054-.84-.679-1.178-.698-.596-.034-1.23.006-1.832-.022-2.19-.099-5.18-.037-7.435-.023-.607.004-1.263-.004-1.862.033-.193.012-.539.19-.671.287-.247.179-.248.28-.439.46-.174-.253-.463-.485-.477-.565l.013-4.59c.288.54.548 1.107.819 1.663.564 1.163.652.863 1.51.742.232-.032.64-.301.843-.413l2.396-1.353c-1.302-.182-2.185-1.81-2.752-2.834-.212-.383-.486-1.055-.603-1.25-.398.263-.778.603-1.185.893-.224.16-1.045.828-1.21.887-.202-.329-.375-.777-.548-1.144-.18-.38-.362-.78-.55-1.14l-1.08-2.281c.71.074 1.473.226 2.19.324.748.102 1.51.161 2.26.237 2.373.238 5.322.373 7.72.027.236-.034.334-.006.524-.018.104-.007.137-.05.215-.084.06-.026 1.566-.314 2.657-.759.916-.373.954-.508 1.586-.883-.095.242-.46.718-.62.901-.063.071-.103.138-.168.206l-.562.552c-1.019.786-1.638 1.199-2.942 1.592a8.52 8.52 0 0 1-.593.148c-.359.08-.27.045-.58-.052-1.09-.34-1.737-.073-2.597.022.352.08.509.085.822.232.936.44 1.515 1.243 2.143 2.015l1.656 1.997c.335.412.395.514.78.774 1.148.777 2.06.866 2.48 1.679.341.66.398.787.335 1.697l-1.294.054.812.616c.001-.005.007.012.01.018.34.145 1.232 1.18 1.46 1.534.347.54.392 1.119.489 1.284.09-.709.287-1.339.62-1.826l2.946.036c-.13.266-.407.615-.59.9-.195.307-.381.603-.58.909l-1.137 1.863c.822.643.594 1.9.593 3.008-.001 1.194-.01 2.387-.01 3.58l-2.759-4.322c-.16-.244-.789-1.257-.836-1.488l1.745-1.76c-.098-.139-.194-.204-.308-.329a5.44 5.44 0 0 0-.321-.32l-1.863-1.888c-.15.085-.517.488-.66.63l-1.88 1.866c.041.147.31.368.432.488l1.365 1.373c.152.159.3.306.456.457.084.082.154.166.237.236.743.627 2.099 2.543 2.621 3.297.26.375.5.716.756 1.07l.737 1.066c-.065.097-.094.098-.162.186-.298.388-.753.763-1.213.953-.688.284-1.377.316-2.147.138-1.206-.278-2.422-.889-3.03-1.972-.243-.434-.256-.415-.256-.995V26.95c0-.79.04-1.688-.005-2.464h-1.956c-.676-.002-1.265.04-1.96.027l-.53.023c.185 0 .577.142.73.22.244.126.378.25.558.42.16.151.3.348.39.59.08.214.03 4.3.035 4.768-.05.957-.732 1.372-1.663 1.489.12.077.28.135.403.21.367.23.657.482.954.772.15.146.426.43.549.633.245.406.713.955 1.038 1.296.097.101.2.178.297.277l1.167 1.132c.617.527.631.694 1.7 1.209 1.227.59 2.608.513 3.851.028.754-.294 1.216-.671 1.523-.8 0 .894.003 1.787.002 2.68 0 .877.032 1.73-.01 2.603-.136 2.779-.865 6.158-2.131 8.56-.374.71-.505 1.011-.945 1.727-.3.488-.935 1.33-1.071 1.564.053-.06.26-.204.338-.27.225-.188.738-.748.92-.972.806-.99.995-1.597 1.473-2.28.772-1.105 2.401-3.388 3.236-4.304.737-.81.924-1.101 1.842-1.91.427-.376 1.117-.883 1.706-.599-.111-.265-.389-.693-.551-.96l-.685-1.174-.036-.065-.931-1.573c-.375-.64-.74-1.241-1.109-1.866-.076-.13-1.108-1.774-1.084-1.895l1.01-1.023c.096-.118.198-.226.297-.346.178-.216.483-.663.611-.74 1.818-1.102 3.358-1.025 5.228-.204l-.038-.046c-.106-.116-.682-.461-1.016-.821-.144-.155-.319-.323-.474-.473-.691-.666-1.394-2.068-1.523-3.213-.118-1.051-.072-6.344-.068-7.483.21-.188.306-.333.488-.515.518-.518 1.169-.807 1.908-1.032a13.65 13.65 0 0 1 1.58-.382c.311-.057 1.575-.19 1.72-.257-.225-.097-.6-.083-.872-.127a9.828 9.828 0 0 1-.815-.164 11.717 11.717 0 0 1-1.487-.472c-.275-.109-2.473-1.14-2.522-1.4v-1.793c0-.65-.087-1.033.223-1.536.245-.4.484-.653.92-.872.585-.293.863-.174 1.485-.209-2.123-.76-3.088-4.475-3.508-6.683l-.405-2.961c-.045.117-.403 2.036-.569 2.219-.198.846-1.293 3.582-1.67 4.522l-.594 1.43c.611.41.927 1.25 1.168 1.968.101.302.31.924.314 1.241.006.501-.036 1.032-.02 1.522.065 2.032.02 4.186.018 6.247-.359-.004-.654-.006-.986-.045l-1.921.027-.509.002c-.253.002-.223-.02-.372-.104a58.062 58.062 0 0 1-.046-2.009c-1.226-.105-2.22-.667-3.07-1.337l-.471-.408c-.17-.144-.3-.263-.453-.427-.114-.122-.286-.308-.377-.448.62-.137.97-.186 1.502-.455a8.561 8.561 0 0 0 1.226-.736c.195-.139.39-.283.557-.425l1.023-.938c.16-.164.305-.336.482-.493.16.113.394.43.533.646.4.62.884 1.895.902 2.586.057-.442.009-4.047.02-4.86.006-.385-.064-.318-.241-.57a28.633 28.633 0 0 1-2.123-3.558l-.505-1.074c-.072.319-.2 1.25-.327 1.465-.06.1-.028.032-.13.108-.144.107-.275.484-.7.82-1.11.878-2.303 1.279-3.755 1.588-.73.155-.768.138-1.493.013a31.037 31.037 0 0 1-2.875-.643c-1.027-.28-2.588-.782-3.417-1.452-.089-.072-.141-.142-.223-.216-1.47-1.343 2.397-2.85 3.25-3.204.305-.128 1.056-.34 1.21-.562l-.156-.066c-.285.025-.59-.143-.858-.055-.486.16-1.607.677-2.045.896-.454.228-.812.464-1.253.71-1.18.658-2.472 1.537-3.526 2.323l-2.181 1.732-1.143-2.477c-.2-.405-.375-.84-.575-1.25-.191-.392-.38-.823-.56-1.234C65.537 5.06 64.03 1.758 63.724.52c-.048-.196-.053-.577-.38-.51-.233.048-.244.373-.298.616a59.476 59.476 0 0 1-.895 3.604c-.184.643-1.484 4.83-1.862 5.375-.313-.026-1.2-.318-1.537-.425-.911-.29-2.023-.65-2.866-1.058-.568-.275-1.066-.698-1.28-.446-.195.231.138.505.237.61.855.917 1.318 2.351.996 3.666-.143.586-.356.884-.594 1.336-.166-.079-.95-.91-1.128-1.097-.31-.325-.417-.235-.583-.463-.326-.447-.674-.819-1-1.233-.337-.427-.932-1.05-1.326-1.481-.119-.13-.163-.213-.285-.265-.055.063-.488.7-.509.752-.044.114.325.627.403.75.317.492.635.998.937 1.497 1.686 2.788 3.39 7.508 3.81 10.84H52.6c0 .487-.043 2.536.08 2.81.113-.06.133-.23.173-.337.146-.387.279-.616.496-.951h2.413c.105 1.316.176 2.55.13 3.889-.02.594-.185 3.24-.366 3.615-.5-1.047-1.143-2.036-1.668-3.069a54.525 54.525 0 0 1-.784-1.585c-.788-1.678-.8-2.079-.8-3.899l-.004-4.666c.05-.33.163-.63.312-.876.23-.382.477-.507.55-.616-.757-.262-1.337-.174-2.146 0-.492.106-.46.196-.968.03a3.584 3.584 0 0 1-2.03-1.625c-.152-.261-.744-1.41-.614-1.742.098-.248.285-.566.41-.81.131-.255.272-.55.418-.8.552-.943 1.293-2.035 1.872-2.998.493-.82.805-.965.63-1.707l-.39.358c-.13.126-.258.227-.394.351l-1.486 1.523a39.97 39.97 0 0 0-2.043 2.455l-1.256 1.758c-.06-.11-.144-.2-.224-.313-.926-1.316-1.034-2.854-.24-4.281.125-.223.267-.433.404-.61.101-.132.424-.47.453-.564a.265.265 0 0 0-.171-.336c-.16-.05-.268.055-.358.109-.639.378-1.393.692-2.094.953-.503.188-2.684.916-3.108.95-.257-.368-1.176-3.15-1.378-3.762-.43-1.307-.776-2.665-1.11-4.028-.087-.352-.16-.69-.24-1.048-.062-.286-.098-.902-.485-.74-.167.07-.163.245-.209.44-.095.403-.343 1.056-.49 1.44-.157.413-1.426 3.515-1.523 3.573-.131.413-1.681 3.74-1.977 4.354l-.658 1.441-2.085-1.66c-.973-.733-2.279-1.632-3.345-2.234-.405-.228-.783-.463-1.175-.684-.38-.214-2.21-1.123-2.637-1.11-.119.028-.269.047-.4.07-.105.018-.287.028-.373.093.149.208.727.356 1.014.469.795.314 1.298.579 2.042.934.162.078.333.172.484.259l.37.264c.003.002.01.02.012.015.002-.004.008.01.012.016.182.077.285.216.401.33.16.158.179.147.321.39.582.991-1.149 1.785-1.885 2.094-1.263.528-2.951.945-4.403 1.21-1.298.239-1.032.286-2.362-.03-1.171-.277-2.962-.914-3.713-1.9-.086-.113-.2-.336-.301-.41-.143-.106-.092.02-.157-.18l-.203-.847a6.662 6.662 0 0 1-.049-.29c-.004-.031-.015-.122-.022-.146-.042-.144-.015-.065-.064-.11-.01.246-.818 1.763-.981 2.046-.62 1.076-1.04 1.795-1.752 2.779-.26.358-1.655 2.174-2.054 2.475-.021-.527.01-.674.142-1.14.236-.826.609-2.027 1.335-2.512-.077-.258-.29-.696-.409-.972L8.335 7.557c-.4-1.095-.712-1.972-1.023-3.102-.065-.234-.184-.975-.249-1.108-.089.438-.11 1.039-.179 1.515-.362 2.49-1.296 7.218-3.73 8.076.647.04.9-.087 1.505.22.42.214.658.468.9.86.311.508.222.914.222 1.57v1.76c-.05.262-2.171 1.263-2.571 1.419-.738.287-1.542.51-2.347.633-.22.033-.69.043-.863.111.122.05 1.46.198 1.747.247.556.097 1.082.222 1.612.384.734.224 1.433.516 1.95 1.057.175.183.268.316.471.498.004 1.106.052 6.496-.07 7.513-.139 1.145-.834 2.526-1.537 3.199-.144.137-.341.33-.473.474-.134.148-.34.3-.51.436l-.528.402c.166-.048.588-.258.99-.38 1.166-.352 2.263-.289 3.368.147.322.127.885.366 1.056.634l.425.556c.104.125.21.24.313.364l.666.685c.416.37.434.227.066.839-.506.842-4.005 6.704-4.135 7.013.672-.324 1.44.367 1.91.768l1.655 1.758c.185.205.382.457.565.687.38.478.719.92 1.087 1.415l1.582 2.205c.177.252.297.51.461.79.445.756 1.254 1.914 1.937 2.458.069.054.275.205.32.255-.142-.242-.77-1.073-1.072-1.565-.18-.29-.343-.56-.497-.855-.878-1.67-1.367-2.799-1.881-4.78-.74-2.854-.708-4.463-.709-7.254l.002-2.68c.335.14.77.51 1.548.808.586.225 1.25.388 1.949.383a4.544 4.544 0 0 0 1.9-.431c.489-.238 1.098-.607 1.381-.92.365-.402.874-.738 1.197-1.135.175-.214.453-.43.596-.587.18-.199.353-.407.537-.613.568-.64.522-.973 1.65-1.833.387-.296.508-.287.725-.432l-.209-.02c-1.764-.448-1.45-1.343-1.45-3.225 0-1.556-.002-3.111-.004-4.666.267 0 1.016.052 1.182-.037l.045 4.48-.357.146.024.015.024.014c.143.073.818.261 1.389.549 1.577.792 1.754 1.39 2.884 2.119.183.118.54.288.58.405.237.013 1.085.51 1.312.644.805.477 1.51 1.039 2.166 1.69.262.26.689.72.909 1.017.53.716 1.01 1.478 1.381 2.474.466 1.252.414 1.89.702 3.154.48 2.1 1.169 3.926 2.133 5.576.242.414.483.798.748 1.178.286.41.544.73.828 1.1l.448.534c.329.362.831.895 1.198 1.202.088.073.157.174.27.221-.11-.173-.24-.32-.38-.484-.526-.617-1.273-1.713-1.715-2.407-2.123-3.33-3.636-7.443-2.718-11.518.198-.879.541-1.634.81-2.47.22-.682.47-1.516.643-2.232.03-.13.04-.221.105-.316.054.159.2.402.286.57.305.594.519 1.057.772 1.694.315.79.59 1.658.765 2.548.287 1.464.344 2.985-.055 4.444-.073.268-.348 1.015-.466 1.117.506.041 1.39-.636 1.763-.934.427-.342.628-.627.92-.872.174-.145.658-.737.845-.948.463-.523 3.154-4.17 3.34-4.713.08.088.093.18.132.297.037.107.07.205.105.301.189.525.486 1.22.739 1.696.431.81.534.88.932 1.502.435.677 1.046 1.859 1.456 2.603.39.711.735 1.417 1.114 2.132.148.278.081.314.019.636-.045.234-.094.444-.143.67-.255 1.167-.715 2.604-1.254 3.614-.514.964-1.033 1.657-1.795 2.264-.767.61-1.15.577-1.628.8.053.193.085.173.32.219.598.117.604.106 1.21.342 1.398.543 2.988 1.304 3.477 2.819l.237-.158-.17.35c.985-1.473 1.192-2.517 1.57-4.357.362-1.769.396-3.546-.1-5.257-.185-.635-.329-1.054-.683-1.55-.452-.632-.426-.532-.37-1.001l.162-2.053c.036-.833.034-5.098-.214-5.664-.023.636.023 1.326.018 1.974-.012 1.48-.116 4.155-.386 5.478-.233-.21-1.01-1.885-1.206-2.283-.902-1.831-1.726-4.498-2.145-6.547-.159-.78-.208-.673.156-1.293.223-.38.428-.712.653-1.104.207-.362.409-.742.603-1.122.39-.762.84-1.47 1.23-2.253.195-.393.424-.772.64-1.119.432-.697 1.05-1.253 1.666-1.783.243-.209.28-.268.28-.585 0-.265-.005-.552.011-.813l.01-.203c-.041-.022-.002-.011-.081-.027l-2.667-.007h-2.75c.14-1.078.414-2.262.694-3.274.06-.218.784-2.723.985-2.954.195.695 1.102 1.476 1.725 1.854.691.42 1.626.851 2.592.956 0 .222.02.575-.005.781-.032.256-.049.037-.008.244l.01 4.895c.017.881-.864 2.99-1.416 3.823-.11.165-.208.278-.322.437.322-.089.726-.356.88-.53m2.337 23.825c-.383-.465-.636-1.266-.84-1.989-.226-.807-.323-1.57-.378-2.442-.066-1.05-.046-1.672.166-2.648.145-.671.324-.969.59-1.541.064-.14.14-.34.237-.447.02.042.38 1.631.516 2.062.408 1.291 1.23 3.23 2.173 4.184l.628.626c-.13.083-.323.14-.47.209-1.058.494-.771.376-1.603 1.035-.255.201-.819.874-1.019.951m36.899-4.861c.064-.358.243-.843.346-1.218.11-.404.215-.835.304-1.252.317-1.473.741-3.993.74-5.481-.001-.466-.034-2.806.009-3.066.158.193.303.46.447.681.747 1.149 1.985 3.244 2.374 4.525.158.52.15.596-.098.795-.663.533-1.644 1.677-2.21 2.356-.353.423-.646.843-.99 1.308a14.98 14.98 0 0 0-.47.679c-.146.221-.28.491-.452.673m-77.681.051c-.188-.428-2.026-2.894-2.42-3.302-.177-.184-.364-.446-.54-.611-.232-.217-.36-.376-.57-.578-.106-.104-.19-.177-.296-.28-.534-.511-.62-.401-.41-1.09.225-.744.709-1.727 1.083-2.367.247-.423 1.442-2.479 1.738-2.84.058.35.012 1.177.012 1.578 0 1.952-.031 2.307.272 4.393.18 1.24.452 2.705.791 3.908.098.347.29.882.34 1.19m50.826-7.868c-.153-.108-.716-.815-.888-1.002.23.111.377.214.597.357.272.175.218.126.291.645m-23.988 0c.015-.104.04-.34.067-.432.049-.166.667-.494.82-.57-.178.194-.736.896-.887 1.002m-8.3-7.769c-.036.385-.02.535.063.892-.2-.14-.62-.55-.752-.744l.69-.148zm41.055.244c.058-.21.184-.434.269-.663.077-.209.16-.459.194-.685l.655.521-1.118.827zm-8.898 6.568c-.31-.088-.58-.318-.822-.48-.604-.403-.922-.68-1.377-1.262-.192-.245-.391-.462-.57-.714-.106-.147-.181-.266-.283-.395-.104-.133-.196-.186-.308-.332l-1.138-1.5c-.834-1.128-.564-.307-.08-2.864.144-.765.227-1.501.324-2.28.205-1.642.327-3.208.355-4.894.196-.051 2.88-.031 2.995.02l.945.576c.817.46 1.106.553 1.91 1.133.23.165.29.112.313.47.068 1.074.246 2.275.447 3.305.149.764.17.546-.19 1.126-.969 1.565-1.876 3.5-2.275 5.332-.356 1.64-.135 1.697-.246 2.759m28.372-5.76c-.037-1.583-.011-3.227 0-4.813.003-.505-.018-.627.143-1.078.227-.634.842-1.854 1.235-2.329.043.324.012.862.012 1.209 0 .757.05 3.137-.023 3.561-.182 1.072-.606 2.16-1.136 3.092l-.195.317c-.004.005-.015.026-.018.02-.003-.005-.012.014-.018.02m-80.713-.379c-.213-.384-.42-.79-.583-1.209-.738-1.89-.563-2.205-.563-4.239 0-.4-.022-2.142.011-2.392.212.255.72 1.155.885 1.495.394.811.488 1.075.494 1.912.011 1.59.03 3.224 0 4.813l-.244-.38zm61.348-2.179c.003.747-.861 2.282-1.447 2.866-.323.322-1.243.425-1.722.206-.158-.072-.343-.472-.438-.643-.121-.218-.234-.468-.35-.7-.234-.466-.44-1.037-.606-1.557a11.566 11.566 0 0 1-.236-.847c-.11-.463-.188-.57-.002-.828l.89-1.273c.204-.263.738-.905.973-1.119l.033 1.756-.357.146c.033.024.004.01.073.042.093.044-.052-.018.05.021l.385.123c.164.056.316.115.464.18.333.146.572.266.879.439.247.139.599.35.793.526.23.206.344.442.618.662m-38.633-.743c.275-1.133.081-1.436.066-2.302.608-.094 1.047.72 1.381 1.18.094.13.181.268.276.401.143.202.089.26.033.513a12.593 12.593 0 0 1-1.005 2.884c-.14.291-.284.57-.448.839-.122.2-.08.243-.313.328-.51.185-1.148.024-1.615-.168-.514-.212-.68-.917-.584-1.355.084-.381.39-.29 1.072-.854.56-.463.536-.409.96-1.002.11-.154.126-.255.177-.464m36.099-5.827l.323-.004c.057.656.001 1.54.004 2.223.006 1.226.12.948-.364 1.838l.037-4.057zM32.463 27.15c.085.11.087.088.15.212l-.321.018-.088-.364c.23.025.147-.008.259.134m35.19-.596c.027-.1.278-.742.321-.791l-.003.494c-.185.096-.132.194-.319.297m-23.094 5.06c-.189-.416-.347-3.023-.367-3.65-.043-1.332.03-2.544.132-3.855l3.408.014c.105.533.05.674-.082 1.179-.25.956-.77 1.947-1.204 2.818-.601 1.204-1.317 2.305-1.887 3.494M68.349 19.11c.127.04.216.138.291.231.1.124.077.218.074.406l-.006 2.841-.34-.005-.019-3.473zm-46.184-.018c.364.277.362.226.358.825l-.007 6.086c0 .59.079 1.277-.107 1.717-.063.151-.115.32-.242.405l-.002-9.033zm72.143-.729c.095.043.203.139.298.204l.889.65c-.374.105-.94.555-1.19.824l.003-1.678zm-88.829.204c.094-.065.203-.16.299-.204l-.009 1.678c-.238-.268-.806-.72-1.18-.823l.89-.65zm65.923-.961c.212-.128.36-.323.555-.492.177-.153.383-.388.537-.506.08.125.145.316.218.454.191.364.568.81.832 1.095.114.124.217.221.344.332.113.098.218.205.34.302l.688.565c.002-.005.01.013.015.02-.268.21-.808.414-1.133.593-.218.12-.365.187-.66.188-.398.002-.396-.035-.56-.29-.24-.374-1.104-1.82-1.176-2.261m-13.442 4.92c-.043-.89-.504-3.24-.775-4.105l-.413-1.206.671.44c.693.428 1.415.78 2.157 1.123.28.13.464.258.725.39.248.125.536.185.775.31.46.238 1.331.38 1.655.506-.05.116-.347.415-.437.508-.307.315-.639.831-.817 1.01-.16.161-.289.307-.447.466l-.441.472c-.164.152-.583.082-.832.083-.486.003-1.387.07-1.821.003M38.283 21.3c.414.042 1.921-.522 2.106-.924l.62-1.208c.288-.528.58-1.046.857-1.576l.842-1.57c.115.065.41.464.507.58.302.365.28.169.077.69-.203.519-.391 1.075-.533 1.631-.198.777-.235 1.338-.353 1.816-.156.63-.255 1.152-.285 1.846l-.413.005c-.147.234-.382.525-.56.775l-.56.743 1.493.018a34.997 34.997 0 0 0 .34 4.968c.112.791.18 1.535.326 2.313.048.258.485 2.115.483 2.135-.015.136-1.423 1.936-1.675 2.268-.192.253-.225.216-.592.727-.205.286-.966 1.228-1.21 1.427-.334.271-1.18.936-1.573 1.048-.034-.326.009-.777-.014-1.14-.06-.996-.275-1.936-.574-2.867-.362-1.13-.868-2.213-1.398-3.166a27.111 27.111 0 0 0-.42-.729c-.087-.145-.413-.608-.414-.743-.003-.155.149-.766.185-.974.323-1.817.467-3.394.423-5.283l3.205.016c.408.475-.41 1.764-.562 2.18.094-.048.23-.149.294-.214.78-.798 1.2-1.536 1.763-2.53.117-.205.209-.415.337-.61.135-.206.204-.229.205-.379 0-.15.29-.563.346-.82-.167.105-.3.213-.515.323-.512.261-1.344.484-1.92.511l-3.274-.004a13.547 13.547 0 0 0-.901-3.562c-.141-.342-.353-.697-.465-1.004.18.073.381.2.562.298.537.29 1.173.555 1.767.735 1.062.32 1.829.375 2.956.17-.093.466-.289.965-.52 1.297-.103.149-.277.35-.416.462-.197.157-.35.189-.547.32m24.722-2.903c.156-.262.412-.568.608-.833l2.165-2.874c.046-.062.123-.145.156-.206.116-.214.601-.76.774-.927.085-.083.12-.088.193-.178.153-.188.372-.365.556-.528.135-.119.224-.228.365-.344.138-.114.233-.247.38-.328.264.626 1.554 3.155 1.64 3.525.094.403.51.9.56 1.172-.487.484-2.363 1.223-3.176 1.494-.242.081-1.005.273-1.163.37.68-.019 1.274-.064 1.928.177l-.002 3.673-4.65.008c-.1.154-.218.315-.305.465.112.125.792.492.998.618.35.212.52.452.75.46l3.202.014c-.006.618-.016.926-.194 1.474-.686 2.12-1.532 2.376-1.882 3.126a.189.189 0 0 1-.014-.027l-.052-.201c-.166-1.385-.094-2.142-.001-3.544-.552.006-1.146-.43-1.845-.725l-.82-.465c-.21-.118-.65-.32-.782-.462.43-.714.59-1.28 1.256-1.978l1.523-1.688c.136-.156.286-.325.411-.478-.391-.15-.904-.252-1.311-.378-.224-.069-1.153-.324-1.268-.412m-31.122-6.218l.625.556c.19.21.43.355.612.572.1.117 1.108 1.128 1.148 1.15-.184-.004-.546-.128-1.099-.136a4.106 4.106 0 0 0-1.101.133c-1.038.278-1.34.663-1.646.792l1.46-3.067zm24.023 1.755c.03-.248.086-.671.2-.848l.096 1.12c-.135-.066-.18-.133-.296-.272m-11.34-.073l.278.347-.192.314-.086-.661zm13.158 1.662c.048-.097.137-.202.202-.299.776-1.152 1.44-2.263 2.04-3.538l.63-1.406 3.549.809c.436.093 3.547.653 3.647.716l-1.14 1.053c-.388.358-.745.709-1.107 1.092-.177.187-.357.41-.537.58-.342.319-.311.368-.508.573-.173.18-.396.342-.58.503-.216.188-.334.387-.516.565-.852.837-1.75 1.576-3.038 1.066a7.108 7.108 0 0 1-1.417-.781c-.25-.173-1.061-.742-1.225-.933m-25.432-3.718c.09-.056 3.228-.63 3.648-.717a68.615 68.615 0 0 0 1.8-.394l1.749-.415c.074.24.217.503.318.737.407.944 1.284 2.596 1.825 3.416l.828 1.226c-.09.132-.42.416-.577.531-.216.16-.386.298-.627.455-.93.608-2.385 1.092-3.395.477-1.093-.667-1.322-1.207-1.733-1.546-.098-.08-.19-.173-.29-.252-.099-.077-.2-.154-.286-.255l-.51-.572c-.182-.187-.338-.372-.519-.563-.76-.804-1.458-1.403-2.23-2.128m-1.874 2.134c-.003.092-.265.656-.325.705-.191.63-.734 1.151-.541 1.554.138-.009.36-.189.545-.232.448-.103 1.415-.007 1.728.46.473.708-.008 1.733-.298 2.335l.733-.19c.513.956 1.338 2.937 1.529 4.02l-2.756.002c-.103.33-.633.837-.843 1.043-.37.363-.602.555-1.113.77.442.008 1.77-.252 2.366-.291.825-.053 1.83-.003 2.675-.003.183 1.636.321 2.462.154 4.119l-.082.497c-.003-.005-.009.019-.015.027-.116-.241-1.061-1.393-1.28-1.631-.077-.084-.098-.125-.167-.206-.067-.08-.112-.115-.175-.196l-.332-.38c-.461-.496-.286-.22-.58-.844l-4.647.02c.254.037.94.292 1.192.398.863.362 1.268.733 1.658 1.589 1.324 2.91-2.65 3.64-4.053 2.497-.334-.271-.491-.455-.724-.9-.236-.45-.217-.847-.217-1.406 0-.823.04-9.362-.015-9.75.258-.14 1.241-1.16 1.47-1.336.152.242.147.422.466.847a8.598 8.598 0 0 0 1.812 1.772c.033.024.054.037.096.075l.054.054c.003-.006.012.013.018.02-.444.455-1.609.955-2.296 1.165-.063.02-.129.036-.186.052l-.182.07c.371-.005 1.124-.042 1.386-.187l1.99-1.12c.252-.146.778-.396.968-.55-.758-.107-1.037-.484-1.454-.885-.094-.09-.124-.147-.217-.257-.598-.698-1.32-2.065-1.684-2.965-.113.14-3.015 2.3-3.205 2.412-.895.53-1.91.953-2.936 1.29-.255.084-.877.223-1.062.333.718.025 1.246-.07 1.926.18l-.013 3.656c-.238.055-5.903.02-6.302.018-1.011-.002-2.063-.064-3.077-.098-.958-.032-2.115-.129-3.05-.094.45.177.802.263 1.214.507 1.17.694 1.85 1.625 2.037 3.148.105-.179.146-.76.503-1.305.389-.593.64-.637 1.156-.636h3.584v9.028c0 .614.017.561-.232 1.02-.168.308-.355.519-.552.732a2.673 2.673 0 0 1-.694.557c-1.496.85-3.285 1.303-4.725.106l-.604-.657c.173-.314 2.008-2.848 2.275-3.212.738-1.007 1.002-1.436 1.875-2.252l1.582-1.595c.134-.137.826-.763.87-.928-.331-.234-2.308-2.39-2.553-2.496-.058.153-1.913 1.933-2.185 2.226-.112.12-.197.175-.3.318l1.755 1.751c-.053.247-.692 1.263-.852 1.51-.6.928-1.283 1.939-1.85 2.884l-.895 1.419c0-1.205-.008-2.41-.01-3.615-.002-1.08-.224-2.344.593-2.974-.192-.403-1.665-2.688-1.908-3.054l-.992-1.476c-.07-.16-.032-5.38-.032-6.19l-.001-.61c-.004-.31.02-.265.202-.407.493-.385 1.571-1.308 1.981-1.738l.557-.66c.096.103.177.232.264.344l.547.637c.114.103.178.185.281.293.626.658 1.77 1.64 2.621 2.045.956.456.773.353 1.754.578-.18.277-.815.894-1.079 1.1l-.751.567a6.434 6.434 0 0 1-1.138.62 4.578 4.578 0 0 1-1.025.295c-.069.01-.144.014-.204.024l-.172.054c.72.13 1.093.197 1.858.047 1.016-.2 2.027-.714 2.848-1.274.139-.095.202-.116.299-.241.574-.736 1.45-1.7 2.107-2.527l.7-.856c.29-.276.428-.458.787-.733.582-.447.806-.47 1.448-.623l-.866-.151c-.475-.033-.858-.048-1.324.033-.748.131-.466.27-1.071.133a8.087 8.087 0 0 1-2.865-1.26c-.62-.433-1.683-1.475-1.936-2.121.25.147.397.28.766.486.279.156.54.284.844.407.61.248 1.227.439 1.91.593.18.041.349.073.533.109.38.073.214.14.462.13.376-.018.725.054 1.101.096.771.084 1.575.121 2.358.13 1.938.022 5.027-.203 7.014-.475.718-.098 1.459-.244 2.163-.321l-.891 1.895c-.036.064.005-.002-.044.066l-.037.04zm30.415-4.172c.042-.222.285-.733.382-.992.981-2.615 1.534-4.539 2.201-7.33l.096.17c1.205 3.084 2.32 5.418 3.669 8.402.155.345.448.857.546 1.2-1.94-.244-4.933-1.01-6.894-1.45m-28.477 1.45c.099-.35.397-.867.556-1.224.182-.406.368-.808.555-1.205a128.502 128.502 0 0 0 2.69-6.101l.37-.948c.042-.116.062-.208.14-.293.592 2.47 1.03 4.029 1.844 6.368l.739 1.953c-1.654.371-5.21 1.24-6.894 1.45m7.656-1.091c.748-.217 1.46-.417 2.184-.656l2.08-.78c-.055.143-.145.264-.216.41a5.16 5.16 0 0 0-.18.431c-.786 2.115.24 2.965.375 5.012.043.644.082.47-.16.985-.123.263-.262.518-.392.792-.241-.303-.37-.416-.685-.838l.54-1.019-.351.414a2.964 2.964 0 0 1-.334.373c-.104-.057-.368-.472-.438-.574-.143-.21-.255-.397-.399-.616-.513-.782-1.727-3.079-2.024-3.934m17.269 5.047a4.922 4.922 0 0 1-.554-.487c-.245-.289-.2-.322-.229-.786l-.095-1.958c.06-.752.155-1.062-.024-1.842-.18-.78-.496-1.164-.575-1.424.572.285 1.412.572 2.058.785.737.244 1.458.43 2.209.665-.15.436-.41.934-.613 1.355-.322.668-1.744 3.342-2.177 3.692M69.06 11.43c.115-.173 1.777-1.432 1.964-1.572.465-.348 1.634-1.188 2.108-1.437-.198.89.202 1.323.646 1.692 1.035.86 3.054 1.448 4.41 1.776.114.027.943.194.99.262-2.418.063-3.46.074-6.147-.209-.574-.06-3.639-.348-3.971-.512m-48.193.695c1.639-.4 4.16-.95 5.44-2.012.443-.368.844-.804.645-1.692.363.19.74.463 1.084.703.769.535 1.81 1.297 2.526 1.904.122.104.396.3.463.402-.169.083-2.05.322-2.392.365-.437.055-.778.058-1.211.107-1.45.164-5.344.46-6.555.223"/></svg>